<svg version="1.1" id="Layer_1" xmlns="http://www.w3.org/2000/svg" xmlns:xlink="http://www.w3.org/1999/xlink" x="0px" y="0px"
	 width="100%" viewBox="0 0 448 446" enable-background="new 0 0 448 446" xml:space="preserve">
<path fill="#FDFDFF" opacity="1.000000" stroke="none" 
	d="
M341.000000,447.000000 
	C263.979095,447.000000 186.958206,447.000000 109.659363,446.712769 
	C140.268280,430.953217 171.155151,415.480927 202.408081,399.825256 
	C201.375748,399.172546 200.976364,398.870026 200.536148,398.648804 
	C170.958176,383.785400 141.406860,368.867950 111.726982,354.210785 
	C109.797089,353.257721 106.512825,353.557648 104.475647,354.546295 
	C87.716522,362.679565 71.098297,371.103485 54.447853,379.460205 
	C41.296707,386.060638 28.160414,392.690643 14.263943,399.686920 
	C27.336748,406.251373 39.653435,412.406769 51.943691,418.614502 
	C70.638748,428.057312 89.315483,437.536346 108.000000,447.000000 
	C72.424812,447.000000 36.849625,447.000000 1.000000,447.000000 
	C1.000000,425.979889 1.000000,404.958618 1.271406,383.475342 
	C1.722362,382.990570 1.901912,382.967743 2.306670,382.961090 
	C2.861098,382.900452 3.064670,382.697601 3.494128,382.277527 
	C33.733612,367.160553 63.593826,352.078949 93.546013,337.182251 
	C97.130424,335.399567 98.472870,333.363495 98.466354,329.242279 
	C98.329857,242.918152 98.363319,156.593781 98.363380,70.269463 
	C98.363380,68.653587 98.363380,67.037704 98.363380,64.875839 
	C96.459709,65.742989 95.117851,66.304657 93.819405,66.953224 
	C77.894501,74.907524 61.961330,82.845497 46.060085,90.846878 
	C31.656668,98.094574 17.289858,105.415016 2.660923,112.731796 
	C2.414937,112.760201 1.974977,112.987572 1.731089,112.979446 
	C1.487202,112.971329 1.000000,113.000000 1.000000,113.000000 
	C1.000000,75.715332 1.000000,38.430660 1.000000,1.000000 
	C75.354164,1.000000 149.708420,1.000000 224.267487,1.218765 
	C193.432846,16.967896 162.393417,32.498260 130.906342,48.252605 
	C131.897522,48.857197 132.393860,49.211811 132.932770,49.481228 
	C162.686111,64.355644 192.420349,79.268959 222.258621,93.971107 
	C223.961609,94.810219 226.813736,94.556984 228.626450,93.719688 
	C236.622421,90.026375 244.433731,85.933258 252.311279,81.983604 
	C274.434998,70.891159 296.558441,59.798027 319.051117,48.520100 
	C318.015106,47.813095 317.395721,47.278393 316.686493,46.922787 
	C299.289795,38.200058 281.856384,29.550152 264.488007,20.771465 
	C251.615997,14.265419 238.826340,7.596415 226.000000,1.000002 
	C300.236145,1.000000 374.472321,1.000000 449.000000,1.000000 
	C449.000000,38.020386 449.000000,75.041534 448.763733,112.464157 
	C448.527496,112.865631 448.039062,112.918015 447.783386,112.688980 
	C415.879150,96.617683 384.230591,80.775429 351.874390,64.578964 
	C351.874390,74.473694 351.874390,83.563690 351.874390,92.653687 
	C351.874390,171.625397 351.900513,250.597137 351.790741,329.568695 
	C351.785706,333.201355 352.641205,335.326599 356.108521,336.837799 
	C361.589569,339.226746 366.829163,342.168060 372.179688,344.858276 
	C397.443542,357.561035 422.710358,370.257843 448.227783,383.069763 
	C448.652954,383.121826 448.826477,383.060913 449.000000,383.000000 
	C449.000000,404.278625 449.000000,425.557220 449.000000,447.000000 
	C413.645935,447.000000 378.291626,447.000000 342.689453,446.738312 
	C373.325287,430.974426 404.208923,415.472198 435.520569,399.755157 
	C434.218689,398.998627 433.531708,398.549072 432.802734,398.183105 
	C403.370300,383.407928 373.966156,368.575104 344.422729,354.025055 
	C342.546509,353.101044 339.264374,353.724762 337.178009,354.740814 
	C320.280914,362.969513 303.507294,371.452209 286.708344,379.881958 
	C273.838531,386.340057 260.986664,392.833801 247.807953,399.472321 
	C248.699753,400.179779 249.154022,400.684448 249.719269,400.967499 
	C264.298553,408.267883 278.913147,415.498047 293.471802,422.839233 
	C309.340607,430.841095 325.159424,438.942169 341.000000,447.000000 
M215.173462,115.937241 
	C213.731796,114.222160 212.634247,111.830223 210.795822,110.895554 
	C189.871536,100.257484 168.832123,89.845978 147.827927,79.364998 
	C138.217712,74.569557 128.617310,69.754410 118.365913,64.624672 
	C118.365913,66.385551 118.365913,67.341736 118.365913,68.297928 
	C118.365921,155.631058 118.399139,242.964264 118.254547,330.297150 
	C118.248222,334.117798 120.012741,335.520752 122.847252,336.946777 
	C145.743515,348.465668 168.603058,360.057495 191.481232,371.612396 
	C199.155304,375.488342 206.850784,379.321930 215.174332,383.494568 
	C215.174332,294.092957 215.174332,205.474075 215.173462,115.937241 
M235.196335,174.499985 
	C235.196335,243.677780 235.196335,312.855591 235.196335,382.682861 
	C237.623566,381.597412 239.141525,380.984131 240.602066,380.255737 
	C269.486603,365.850891 298.333679,351.370239 327.282410,337.095703 
	C330.925934,335.299103 332.065552,333.142303 332.059784,329.126709 
	C331.935913,242.832443 331.965698,156.537964 331.965698,70.243523 
	C331.965698,68.636177 331.965698,67.028839 331.965698,65.060081 
	C330.888062,65.392181 330.244232,65.497879 329.686218,65.775841 
	C299.302948,80.910301 268.939453,96.084541 238.527954,111.161995 
	C235.893417,112.468163 235.118469,114.178917 235.136154,117.025795 
	C235.253082,135.849915 235.196503,154.675125 235.196335,174.499985 
z"/>
<path fill="#5E02FF" opacity="1.000000" stroke="none" 
	d="
M225.750000,1.000002 
	C238.826340,7.596415 251.615997,14.265419 264.488007,20.771465 
	C281.856384,29.550152 299.289795,38.200058 316.686493,46.922787 
	C317.395721,47.278393 318.015106,47.813095 319.051117,48.520100 
	C296.558441,59.798027 274.434998,70.891159 252.311279,81.983604 
	C244.433731,85.933258 236.622421,90.026375 228.626450,93.719688 
	C226.813736,94.556984 223.961609,94.810219 222.258621,93.971107 
	C192.420349,79.268959 162.686111,64.355644 132.932770,49.481228 
	C132.393860,49.211811 131.897522,48.857197 130.906342,48.252605 
	C162.393417,32.498260 193.432846,16.967896 224.736145,1.218765 
	C225.000000,1.000000 225.500000,1.000000 225.750000,1.000002 
z"/>
<path fill="#5D02FF" opacity="1.000000" stroke="none" 
	d="
M341.250000,447.000000 
	C325.159424,438.942169 309.340607,430.841095 293.471802,422.839233 
	C278.913147,415.498047 264.298553,408.267883 249.719269,400.967499 
	C249.154022,400.684448 248.699753,400.179779 247.807953,399.472321 
	C260.986664,392.833801 273.838531,386.340057 286.708344,379.881958 
	C303.507294,371.452209 320.280914,362.969513 337.178009,354.740814 
	C339.264374,353.724762 342.546509,353.101044 344.422729,354.025055 
	C373.966156,368.575104 403.370300,383.407928 432.802734,398.183105 
	C433.531708,398.549072 434.218689,398.998627 435.520569,399.755157 
	C404.208923,415.472198 373.325287,430.974426 342.220825,446.738312 
	C342.000000,447.000000 341.500000,447.000000 341.250000,447.000000 
z"/>
<path fill="#5D02FF" opacity="1.000000" stroke="none" 
	d="
M108.250000,447.000000 
	C89.315483,437.536346 70.638748,428.057312 51.943691,418.614502 
	C39.653435,412.406769 27.336748,406.251373 14.263943,399.686920 
	C28.160414,392.690643 41.296707,386.060638 54.447853,379.460205 
	C71.098297,371.103485 87.716522,362.679565 104.475647,354.546295 
	C106.512825,353.557648 109.797089,353.257721 111.726982,354.210785 
	C141.406860,368.867950 170.958176,383.785400 200.536148,398.648804 
	C200.976364,398.870026 201.375748,399.172546 202.408081,399.825256 
	C171.155151,415.480927 140.268280,430.953217 109.190704,446.712769 
	C109.000000,447.000000 108.500000,447.000000 108.250000,447.000000 
z"/>
<path fill="#CFC3FF" opacity="1.000000" stroke="none" 
	d="
M2.081461,382.944946 
	C1.901912,382.967743 1.722362,382.990570 1.271406,383.006683 
	C1.000000,293.312439 1.000000,203.624878 1.000000,113.468658 
	C1.000000,113.000000 1.487202,112.971329 1.741505,113.447220 
	C1.997190,146.032974 1.990238,178.142838 2.001781,210.252716 
	C2.022475,267.816803 2.054292,325.380859 2.081461,382.944946 
z"/>
<path fill="#874BFF" opacity="1.000000" stroke="none" 
	d="
M449.000000,382.531342 
	C448.826477,383.060913 448.652954,383.121826 448.237000,382.604279 
	C448.009399,292.323212 448.024231,202.620621 448.039062,112.918015 
	C448.039062,112.918015 448.527496,112.865631 448.763733,112.932816 
	C449.000000,202.687561 449.000000,292.375122 449.000000,382.531342 
z"/>
<path fill="#5E01FF" opacity="1.000000" stroke="none" 
	d="
M215.173889,116.396210 
	C215.174332,205.474075 215.174332,294.092957 215.174332,383.494568 
	C206.850784,379.321930 199.155304,375.488342 191.481232,371.612396 
	C168.603058,360.057495 145.743515,348.465668 122.847252,336.946777 
	C120.012741,335.520752 118.248222,334.117798 118.254547,330.297150 
	C118.399139,242.964264 118.365921,155.631058 118.365913,68.297928 
	C118.365913,67.341736 118.365913,66.385551 118.365913,64.624672 
	C128.617310,69.754410 138.217712,74.569557 147.827927,79.364998 
	C168.832123,89.845978 189.871536,100.257484 210.795822,110.895554 
	C212.634247,111.830223 213.731796,114.222160 215.173889,116.396210 
z"/>
<path fill="#5E02FF" opacity="1.000000" stroke="none" 
	d="
M235.196381,173.999969 
	C235.196503,154.675125 235.253082,135.849915 235.136154,117.025795 
	C235.118469,114.178917 235.893417,112.468163 238.527954,111.161995 
	C268.939453,96.084541 299.302948,80.910301 329.686218,65.775841 
	C330.244232,65.497879 330.888062,65.392181 331.965698,65.060081 
	C331.965698,67.028839 331.965698,68.636177 331.965698,70.243523 
	C331.965698,156.537964 331.935913,242.832443 332.059784,329.126709 
	C332.065552,333.142303 330.925934,335.299103 327.282410,337.095703 
	C298.333679,351.370239 269.486603,365.850891 240.602066,380.255737 
	C239.141525,380.984131 237.623566,381.597412 235.196335,382.682861 
	C235.196335,312.855591 235.196335,243.677780 235.196381,173.999969 
z"/>
<path fill="#5D01FF" opacity="1.000000" stroke="none" 
	d="
M447.783386,112.688980 
	C448.024231,202.620621 448.009399,292.323212 447.985352,382.491302 
	C422.710358,370.257843 397.443542,357.561035 372.179688,344.858276 
	C366.829163,342.168060 361.589569,339.226746 356.108521,336.837799 
	C352.641205,335.326599 351.785706,333.201355 351.790741,329.568695 
	C351.900513,250.597137 351.874390,171.625397 351.874390,92.653687 
	C351.874390,83.563690 351.874390,74.473694 351.874390,64.578964 
	C384.230591,80.775429 415.879150,96.617683 447.783386,112.688980 
z"/>
<path fill="#5D00FF" opacity="1.000000" stroke="none" 
	d="
M2.906908,112.703384 
	C17.289858,105.415016 31.656668,98.094574 46.060085,90.846878 
	C61.961330,82.845497 77.894501,74.907524 93.819405,66.953224 
	C95.117851,66.304657 96.459709,65.742989 98.363380,64.875839 
	C98.363380,67.037704 98.363380,68.653587 98.363380,70.269463 
	C98.363319,156.593781 98.329857,242.918152 98.466354,329.242279 
	C98.472870,333.363495 97.130424,335.399567 93.546013,337.182251 
	C63.593826,352.078949 33.733612,367.160553 3.451537,381.784729 
	C3.038284,333.107025 3.024820,284.831024 2.998297,236.555038 
	C2.975616,195.271149 2.937947,153.987274 2.906908,112.703384 
z"/>
<path fill="#4B00FF" opacity="1.000000" stroke="none" 
	d="
M2.660923,112.731796 
	C2.937947,153.987274 2.975616,195.271149 2.998297,236.555038 
	C3.024820,284.831024 3.038284,333.107025 3.100004,381.875854 
	C3.064670,382.697601 2.861098,382.900452 2.306670,382.961090 
	C2.054292,325.380859 2.022475,267.816803 2.001781,210.252716 
	C1.990238,178.142838 1.997190,146.032974 1.985392,113.455338 
	C1.974977,112.987572 2.414937,112.760201 2.660923,112.731796 
z"/>
</svg>